<?xml version="1.0" encoding="UTF-8"?>
<!DOCTYPE svg PUBLIC "-//W3C//DTD SVG 1.1//EN" "http://www.w3.org/Graphics/SVG/1.1/DTD/svg11.dtd">
<!-- Creator: CorelDRAW X8 -->
<svg xmlns="http://www.w3.org/2000/svg" xml:space="preserve" width="3.46026in" height="3.46259in" version="1.1" style="shape-rendering:geometricPrecision; text-rendering:geometricPrecision; image-rendering:optimizeQuality; fill-rule:evenodd; clip-rule:evenodd"
viewBox="0 0 626 627"
 xmlns:xlink="http://www.w3.org/1999/xlink">
 <defs>
  <style type="text/css">
   <![CDATA[
    .fil0 {fill:#F2B48C}
   ]]>
  </style>
 </defs>
 <g id="Layer_x0020_1">
  <metadata id="CorelCorpID_0Corel-Layer"/>
  <path class="fil0" d="M313 0c173,0 313,140 313,313 0,174 -140,314 -313,314 -173,0 -313,-140 -313,-314 0,-173 140,-313 313,-313zm-85 229l0 358c-117,-37 -201,-145 -201,-274 0,-158 128,-286 286,-286 158,0 286,128 286,286 0,159 -128,287 -286,287 -19,0 -37,-2 -55,-6 1,-4 2,-9 5,-14 3,-6 7,-12 11,-17 4,-5 8,-9 14,-15 7,-5 16,-13 25,-20 8,-8 15,-15 20,-22 6,-7 11,-14 14,-21 4,-8 6,-16 7,-23 2,-8 2,-15 3,-18 0,-4 0,-4 0,-3 0,0 0,0 -5,0 -5,0 -15,0 -19,0 -5,0 -5,0 -5,0 0,0 0,0 0,2 -1,3 -1,7 -2,12 0,5 -2,9 -4,15 -2,5 -5,10 -8,15 -3,4 -6,7 -10,12 -5,4 -11,10 -17,15 -5,5 -11,9 -16,14 -5,4 -9,9 -12,12 -2,2 -3,3 -4,4l0 -19c1,-2 1,-6 2,-9 1,-6 3,-13 6,-19 3,-6 7,-12 11,-17 4,-5 8,-9 14,-15 7,-6 16,-13 25,-21 8,-7 15,-14 20,-21 6,-7 11,-14 14,-21 4,-8 6,-16 7,-23 2,-8 2,-15 3,-18 0,-4 0,-4 0,-4 0,0 0,1 -5,1 -5,0 -15,-1 -19,-1 -5,0 -5,0 -5,0 0,0 0,0 0,3 -1,2 -1,7 -2,12 0,5 -2,9 -4,14 -2,5 -5,11 -8,15 -3,5 -6,8 -10,13 -5,4 -11,10 -17,15 -5,5 -11,9 -16,13 -5,5 -9,9 -12,13 -2,2 -3,3 -4,4l0 -206c26,11 67,2 96,-27 36,-35 46,-86 19,-111 -28,-26 -74,-17 -110,19 -21,20 -32,46 -33,68 0,9 1,20 1,29zm45 -70c2,0 4,0 8,0 7,1 16,2 24,3 8,1 16,3 22,4 6,1 10,1 14,1 4,0 7,0 10,-1 1,-1 3,-2 4,-2 3,-13 1,-25 -6,-32 -15,-13 -47,-4 -70,21 -2,2 -4,4 -6,6zm66 37c-1,0 -3,0 -4,0 -5,-1 -11,-1 -17,-2 -7,-1 -14,-3 -20,-4 -6,-1 -11,-1 -15,-2 -5,0 -9,0 -12,0 -3,0 -6,0 -8,1 -1,1 -3,2 -4,4 -1,2 -1,4 -2,5 0,2 0,3 0,6 0,3 0,5 0,8 1,4 2,7 5,10 13,13 47,5 70,-19 3,-2 5,-5 7,-7z"/>
 </g>
</svg>
